<svg width="17" height="30" viewBox="0 0 17 30" fill="none" xmlns="http://www.w3.org/2000/svg">
<path d="M15.3109 28.7535V6.02744C15.3108 5.7839 15.232 5.54654 15.0856 5.34895C14.9393 5.15135 14.7327 5.00351 14.4952 4.92632L2.56944 1.06004C2.39012 1.00159 2.19906 0.985513 2.01209 1.01314C1.82511 1.04077 1.64759 1.11131 1.49421 1.21892C1.34083 1.32653 1.21601 1.46812 1.13007 1.63197C1.04413 1.79582 0.999544 1.97722 1 2.16115V28.7535" stroke="#A0A3BD" stroke-width="1.6" stroke-linecap="round" stroke-linejoin="round"/>
<path d="M10.5391 21.4297V22.5896" stroke="#A0A3BD" stroke-width="1.6" stroke-linecap="round" stroke-linejoin="round"/>
<path d="M10.5391 15.6289V16.7888" stroke="#A0A3BD" stroke-width="1.6" stroke-linecap="round" stroke-linejoin="round"/>
<path d="M10.5391 9.82812V10.988" stroke="#A0A3BD" stroke-width="1.6" stroke-linecap="round" stroke-linejoin="round"/>
<path d="M5.77148 21.4297V22.5896" stroke="#A0A3BD" stroke-width="1.6" stroke-linecap="round" stroke-linejoin="round"/>
<path d="M5.77148 15.6289V16.7888" stroke="#A0A3BD" stroke-width="1.6" stroke-linecap="round" stroke-linejoin="round"/>
<path d="M5.77148 9.82812V10.988" stroke="#A0A3BD" stroke-width="1.6" stroke-linecap="round" stroke-linejoin="round"/>
</svg>
