<svg width="37" height="37" viewBox="0 0 37 37" fill="none" xmlns="http://www.w3.org/2000/svg">
<path d="M18.5 3.69995C10.3267 3.69995 3.70001 10.3267 3.70001 18.5C3.70001 25.435 8.47548 31.2378 14.9135 32.8436C14.8444 32.6438 14.8 32.4119 14.8 32.1246V29.595C14.1994 29.595 13.193 29.595 12.9401 29.595C11.9276 29.595 11.0272 29.1596 10.5906 28.3506C10.1059 27.4515 10.0221 26.0763 8.82081 25.2352C8.46438 24.9552 8.73571 24.6358 9.14641 24.6789C9.90491 24.8935 10.5339 25.414 11.1259 26.1861C11.7154 26.9594 11.9929 27.1345 13.0943 27.1345C13.6283 27.1345 14.4275 27.1037 15.1799 26.9853C15.5844 25.9579 16.2837 25.0119 17.1384 24.5655C12.21 24.0586 9.85805 21.6067 9.85805 18.2779C9.85805 16.8448 10.4685 15.4586 11.5058 14.2906C11.1654 13.1313 10.7374 10.767 11.6365 9.86662C13.854 9.86662 15.1947 11.3047 15.5166 11.6932C16.6216 11.3146 17.8352 11.1 19.1105 11.1C20.3882 11.1 21.6068 11.3146 22.7143 11.6957C23.0325 11.3096 24.3744 9.86662 26.5968 9.86662C27.4996 10.7682 27.0667 13.1424 26.7226 14.2992C27.7537 15.4647 28.3605 16.8473 28.3605 18.2779C28.3605 21.6042 26.0122 24.0549 21.0912 24.5642C22.4454 25.2709 23.4333 27.2566 23.4333 28.7526V32.1246C23.4333 32.2528 23.405 32.3454 23.3902 32.4551C29.1572 30.4337 33.3 24.9577 33.3 18.5C33.3 10.3267 26.6733 3.69995 18.5 3.69995Z" fill="black"/>
</svg>
