<svg width="25" height="25" viewBox="0 0 25 25" fill="none" xmlns="http://www.w3.org/2000/svg">
<path d="M10.1632 18.2284C9.82826 18.6079 9.55231 19.0565 9.34437 19.5195C8.82765 19.5839 8.30518 19.6026 7.93437 19.6026C7.48043 19.6026 7.29219 19.5622 7.16751 19.4988C7.04309 19.4356 6.91936 19.3188 6.67176 18.9889L6.67092 18.9878C6.13651 18.2799 5.52314 17.7412 4.73809 17.5156L4.6963 17.5036L4.65307 17.499C4.36335 17.4681 4.00417 17.5545 3.80437 17.8522C3.6965 18.0129 3.65516 18.2154 3.70852 18.419C3.75899 18.6116 3.88107 18.7588 4.01318 18.8642L4.02397 18.8728L4.03522 18.8808C4.43367 19.1642 4.65828 19.5416 4.83614 19.9792C4.90749 20.1547 4.96702 20.3283 5.02978 20.5113C5.04746 20.5629 5.06539 20.6152 5.08392 20.6685C5.16454 20.9004 5.25626 21.1506 5.37815 21.3802L5.37825 21.3804C5.85383 22.2755 6.81109 22.7133 7.80417 22.7133H7.80542H7.8067H7.80798H7.80929H7.8106H7.81193H7.81328H7.81464H7.81601H7.8174H7.8188H7.82022H7.82165H7.82309H7.82455H7.82602H7.82751H7.82901H7.83052H7.83205H7.83359H7.83514H7.83671H7.83829H7.83988H7.84149H7.84311H7.84475H7.8464H7.84806H7.84974H7.85142H7.85313H7.85484H7.85657H7.85831H7.86006H7.86183H7.86361H7.8654H7.86721H7.86903H7.87086H7.8727H7.87456H7.87642H7.87831H7.8802H7.88211H7.88402H7.88596H7.8879H7.88985H7.89182H7.8938H7.89579H7.8978H7.89982H7.90184H7.90388H7.90594H7.908H7.91008H7.91217H7.91427H7.91638H7.9185H7.92063H7.92278H7.92494H7.92711H7.92929H7.93148H7.93369H7.9359H7.93813H7.94036H7.94261H7.94487H7.94714H7.94943H7.95172H7.95402H7.95634H7.95866H7.961H7.96335H7.96571H7.96808H7.97046H7.97285H7.97525H7.97766H7.98008H7.98251H7.98496H7.98741H7.98987H7.99235H7.99483H7.99732H7.99983H8.00234H8.00487H8.0074H8.00995H8.0125H8.01507H8.01764H8.02022H8.02282H8.02542H8.02803H8.03066H8.03329H8.03593H8.03858H8.04124H8.04391H8.04659H8.04928H8.05198H8.05469H8.0574H8.06013H8.06286H8.06561H8.06836H8.07112H8.07389H8.07667H8.07946H8.08226H8.08506H8.08788H8.0907H8.09353H8.09637H8.09922H8.10208H8.10495H8.10782H8.1107H8.11359H8.11649H8.1194H8.12231H8.12524H8.12817H8.13111H8.13406H8.13701H8.13998H8.14295H8.14593H8.14892H8.15191H8.15491H8.15792H8.16094H8.16397H8.167H8.17004H8.17309H8.17614H8.17921H8.18228H8.18535H8.18844H8.19153H8.19463H8.19773H8.20085H8.20397H8.20709H8.21023H8.21337H8.21652H8.21967H8.22283H8.226H8.22917H8.23235H8.23554H8.23874H8.24193H8.24514H8.24835H8.25157H8.2548H8.25803H8.26127H8.26451H8.26777H8.27102H8.27429H8.27755H8.28083H8.28411H8.28739H8.29069H8.29399H8.29729H8.3006H8.30391H8.30723H8.31056H8.31389H8.31723H8.32057H8.32392H8.32727H8.33063H8.33399H8.33736H8.34074H8.34412H8.3475H8.35089H8.35428H8.35768H8.36109H8.3645H8.36791H8.37133H8.37475H8.37818H8.38161H8.38505H8.38849H8.39194H8.39539H8.39884H8.4023H8.40577H8.40924H8.41271H8.41618H8.41966H8.42315H8.42664H8.43013H8.43363H8.43713H8.44063H8.44414H8.44765H8.45117H8.45469H8.45821H8.46174H8.46527H8.4688H8.47234H8.47588H8.47943H8.48298H8.48653H8.49008H8.49364H8.4972H8.50076H8.50433H8.5079H8.51147H8.51505H8.51863H8.52221H8.52579H8.52938H8.53297H8.53657H8.54016H8.54376H8.54736H8.55096H8.55457H8.55818H8.56179H8.5654H8.56902H8.57263H8.57625H8.57988H8.5835H8.58713H8.59076H8.59439H8.59802H8.60165H8.60529H8.60893H8.61257H8.61621H8.61985H8.6235H8.62714H8.63079H8.63444H8.63809H8.64174H8.6454H8.64905H8.65271H8.65637H8.66002H8.66368H8.66735H8.67101H8.67467H8.67834H8.682H8.68567H8.68933H8.693H8.69667H8.70034H8.70401H8.70768H8.71135H8.71502H8.7187H8.72237H8.72604H8.72972H8.73339H8.73707H8.74074H8.74441H8.74809H8.75176H8.75544H8.75912H8.76279H8.76647H8.77014H8.77382H8.77749H8.78117H8.78484H8.78851H8.79219H8.79586H8.79953H8.8032H8.80688H8.81055H8.81422H8.81789H8.82156H8.82522H8.82889H8.83256H8.83623H8.83989H8.84355H8.84722H8.85088H8.85454H8.8582H8.86186H8.86551H8.86917H8.87283H8.875V24.3088C4.02436 22.7473 0.5 18.1484 0.5 12.6957C0.5 5.9533 5.88031 0.5 12.5 0.5C19.1197 0.5 24.5 5.9533 24.5 12.6957C24.5 17.7489 21.4714 22.0696 17.1667 23.9194V21.4907C17.1667 20.7515 16.9299 19.9247 16.5481 19.2058C16.3637 18.8586 16.1379 18.5224 15.8755 18.2265C17.4773 17.9131 18.7434 17.3172 19.656 16.4752C20.7843 15.4341 21.3281 14.0568 21.3281 12.5053C21.3281 11.2226 20.8268 10.0026 19.9964 8.97217C20.128 8.46435 20.2568 7.7916 20.2861 7.13113C20.3035 6.74032 20.2869 6.33597 20.2063 5.96467C20.1264 5.59638 19.9753 5.22357 19.6946 4.93885L19.5477 4.78989H19.3385C17.5879 4.78989 16.4209 5.74643 15.9046 6.28149C15.0042 6.00245 14.0303 5.84786 13.0156 5.84786C12.0027 5.84786 11.0325 6.0025 10.1348 6.27983C9.61815 5.74536 8.45187 4.78989 6.70312 4.78989H6.49354L6.3466 4.93933C6.06713 5.22357 5.91646 5.59524 5.83652 5.96248C5.75594 6.33271 5.739 6.73584 5.7558 7.12559C5.78421 7.78443 5.91154 8.45575 6.04157 8.9634C5.20589 9.99611 4.70104 11.2196 4.70104 12.5053C4.70104 14.058 5.24575 15.4362 6.37576 16.4775C7.28999 17.32 8.55837 17.9157 10.1632 18.2284Z" stroke="#A0A3BD"/>
</svg>
