<svg width="34" height="34" viewBox="0 0 34 34" fill="none" xmlns="http://www.w3.org/2000/svg">
<path d="M31.0578 14.3921H29.9167V14.3333H17.1667V20H25.173C24.0049 23.2987 20.8663 25.6667 17.1667 25.6667C12.4725 25.6667 8.66667 21.8608 8.66667 17.1667C8.66667 12.4725 12.4725 8.66667 17.1667 8.66667C19.3335 8.66667 21.3048 9.48408 22.8057 10.8193L26.8128 6.81225C24.2826 4.45421 20.8982 3 17.1667 3C9.34313 3 3 9.34313 3 17.1667C3 24.9902 9.34313 31.3333 17.1667 31.3333C24.9902 31.3333 31.3333 24.9902 31.3333 17.1667C31.3333 16.2168 31.2356 15.2896 31.0578 14.3921Z" fill="#FFC107"/>
<path d="M4.63342 10.5728L9.28788 13.9862C10.5473 10.8682 13.5974 8.66667 17.1667 8.66667C19.3335 8.66667 21.3048 9.48408 22.8057 10.8193L26.8128 6.81225C24.2826 4.45421 20.8982 3 17.1667 3C11.7253 3 7.00634 6.07204 4.63342 10.5728Z" fill="#FF3D00"/>
<path d="M17.1667 31.3333C20.8259 31.3333 24.1509 29.9329 26.6647 27.6556L22.2801 23.9454C20.8578 25.0227 19.0898 25.6666 17.1667 25.6666C13.4819 25.6666 10.3532 23.3171 9.17456 20.0382L4.55481 23.5976C6.89939 28.1855 11.6608 31.3333 17.1667 31.3333Z" fill="#4CAF50"/>
<path d="M31.0578 14.392H29.9166V14.3333H17.1666V19.9999H25.1729C24.6119 21.5845 23.5926 22.9508 22.278 23.946L22.2801 23.9446L26.6647 27.6549C26.3544 27.9368 31.3333 24.2499 31.3333 17.1666C31.3333 16.2167 31.2355 15.2895 31.0578 14.392Z" fill="#1976D2"/>
</svg>
