<svg width="31" height="19" viewBox="0 0 31 19" fill="none" xmlns="http://www.w3.org/2000/svg">
<path d="M25.7642 0.651052V0.651092L25.7711 0.651013L30.2244 0.600017C30.2595 0.60063 30.3102 0.617812 30.3557 0.660533C30.3772 0.680784 30.3902 0.700292 30.3966 0.713595C30.3983 0.717015 30.3993 0.719597 30.3999 0.721315C30.3984 0.771601 30.3783 0.81556 30.3517 0.844451C30.3266 0.871676 30.3011 0.881144 30.2743 0.881144H28.9783H27.0602C25.8114 0.881144 24.7363 1.35305 23.9077 2.11106L23.8865 2.13049L23.8672 2.15185L23.4619 2.6012L21.3981 4.68534L21.3981 4.68528L21.3913 4.69231L19.6288 6.53105L19.4619 6.70512V6.74961L11.2374 15.2581C11.1351 15.3592 11.0134 15.4901 10.8924 15.6203C10.8778 15.636 10.8633 15.6517 10.8487 15.6673C10.706 15.8207 10.5585 15.978 10.4134 16.121C9.95794 16.5697 9.58865 16.9323 9.35887 17.1206C9.28642 17.163 9.22523 17.2084 9.19087 17.2339C9.18765 17.2363 9.18467 17.2386 9.18193 17.2406C9.12987 17.279 9.1162 17.2876 9.11631 17.2877L9.04917 17.3208L8.99114 17.3709C8.29937 17.9673 7.0531 18.4 5.6505 18.4C4.25938 18.4 3.04281 17.9726 2.27911 17.3972L2.26365 17.3855L2.24747 17.3749C1.9882 17.2046 1.68796 16.9508 1.43 16.5697L1.42065 16.5558L1.41055 16.5426C1.26733 16.3544 1.18667 16.233 1.10531 16.0726L1.08064 16.024L1.04762 15.9806C0.970071 15.8788 0.891479 15.6807 0.78361 15.3087L0.779945 15.2961L0.775728 15.2836C0.762517 15.2446 0.749009 15.2074 0.738691 15.1791C0.736809 15.1739 0.735034 15.169 0.733386 15.1645C0.721472 15.1316 0.714837 15.1124 0.710065 15.0968C0.703483 15.0751 0.703604 15.0704 0.703667 15.0678C0.703673 15.0676 0.703678 15.0674 0.703678 15.0672C0.703678 15.0166 0.697827 14.9744 0.694708 14.9538C0.691074 14.9297 0.686758 14.9076 0.683583 14.892C0.680344 14.876 0.676688 14.8591 0.673939 14.8463L0.665766 14.8074C0.654961 14.7542 0.651839 14.7249 0.651839 14.7097V14.7094V14.7091V14.7088V14.7085V14.7082V14.7079V14.7076V14.7073V14.707V14.7067V14.7065V14.7062V14.7059V14.7056V14.7053V14.705V14.7048V14.7045V14.7042V14.7039V14.7036V14.7034V14.7031V14.7028V14.7025V14.7023V14.702V14.7017V14.7015V14.7012V14.7009V14.7007V14.7004V14.7001V14.6999V14.6996V14.6994V14.6991V14.6988V14.6986V14.6983V14.6981V14.6978V14.6976V14.6973V14.6971V14.6968V14.6966V14.6963V14.6961V14.6958V14.6956V14.6953V14.6951V14.6949V14.6946V14.6944V14.6941V14.6939V14.6937V14.6934V14.6932V14.693V14.6927V14.6925V14.6923V14.692V14.6918V14.6916V14.6913V14.6911V14.6909V14.6907V14.6904V14.6902V14.69V14.6898V14.6895V14.6893V14.6891V14.6889V14.6887V14.6884V14.6882V14.688V14.6878V14.6876V14.6874V14.6871V14.6869V14.6867V14.6865V14.6863V14.6861V14.6859V14.6857V14.6855V14.6853V14.685V14.6848V14.6846V14.6844V14.6842V14.684V14.6838V14.6836V14.6834V14.6832V14.683V14.6828V14.6826V14.6824V14.6822V14.682V14.6818V14.6816V14.6815V14.6813V14.6811V14.6809V14.6807V14.6805V14.6803V14.6801V14.6799V14.6797V14.6795V14.6794V14.6792V14.679V14.6788V14.6786V14.6784V14.6782V14.6781V14.6779V14.6777V14.6775V14.6773V14.6772V14.677V14.6768V14.6766V14.6764V14.6763V14.6761V14.6759V14.6757V14.6756V14.6754V14.6752V14.675V14.6749V14.6747V14.6745V14.6743V14.6742V14.674V14.6738V14.6736V14.6735V14.6733V14.6731V14.673V14.6728V14.6726V14.6725V14.6723V14.6721V14.672V14.6718V14.6716V14.6715V14.6713V14.6711V14.671V14.6708V14.6706V14.6705V14.6703V14.6702V14.67V14.6698V14.6697V14.6695V14.6693V14.6692V14.669V14.6689V14.6687V14.6685V14.6684V14.6682V14.6681V14.6679V14.6678V14.6676V14.6674V14.6673V14.6671V14.667V14.6668V14.6667V14.6665V14.6663V14.6662V14.666V14.6659V14.6657V14.6656V14.6654V14.6653V14.6651V14.665V14.6648V14.6646V14.6645V14.6643V14.6642V14.664V14.6639V14.6637V14.6636V14.6634V14.6633V14.6631V14.663V14.6628V14.6627V14.6625V14.6624V14.6622V14.6621V14.6619V14.6618V14.6616V14.6615V14.6613V14.6612V14.661V14.6609V14.6607V14.6606V14.6604V14.6603V14.6601V14.66V14.6598V14.6597V14.6595V14.6594V14.6592V14.6591V14.6589V14.6588V14.6586V14.6585V14.6583V14.6582V14.658V14.6579V14.6577V14.6576V14.6574V14.6573V14.6571V14.657V14.6568V14.6567V14.6565V14.6564V14.6562V14.6561V14.6559V14.6558V14.6556V14.6555V14.6553V14.6552V14.655V14.6549V14.6547V14.6546V14.6544V14.6543V14.6541V14.654V14.6538V14.6537V14.6535V14.6534V14.6532V14.653V14.6529V14.6527V14.6526V14.6524V14.6523V14.6521V14.652V14.6518V14.6517V14.6515V14.6514V14.6512V14.651V14.6509V14.6507V14.6506V14.6504V14.6503V14.6501V14.65V14.6498V14.6496V14.6495V14.6493V14.6492V14.649V14.6488V14.6487V14.6485V14.6484V14.6482V14.648V14.6479V14.6477V14.6476V14.6474V14.6472V14.6471V14.6469V14.6468V14.6466V14.6464V14.6463V14.6461V14.6459V14.6458V14.6456V14.6454V14.6453V14.6451V14.6449V14.6448V14.6446V14.6444V14.6443V14.6441V14.6439V14.6438V14.6436V14.6434V14.6432V14.6431V14.6429V14.6427V14.6426V14.6424V14.6422V14.642V14.6419V14.6417V14.6415V14.6413V14.6412V14.641V14.6408V14.6406V14.6404V14.6403V14.6401V14.6399V14.6397V14.6395V14.6394V14.6392V14.639V14.6388V14.6386V14.6384V14.6383V14.6381V14.6379V14.6377V14.6375V14.6373V14.6371V14.6369V14.6367V14.6366V14.6364V14.6362V14.636V14.6358V14.6356V14.6354V14.6352V14.635V14.6348V14.6346V14.6344V14.6342V14.634V14.6338V14.6336V14.6334V14.6332V14.633V14.6328V14.6326V14.6324V14.6322V14.632V14.6318V14.6316V14.6314V14.6312V14.6309V14.6307V14.6305V14.6303V14.6301V14.6299V14.6297V14.6295V14.6292V14.629V14.6288V14.6286V14.6284V14.6281V14.6279V14.6277V14.6275V14.6273V14.627V14.6268V14.6266V14.6264V14.6261V14.6259V14.6257V14.6254V14.6252V14.625V14.6248V14.6245V14.6243V14.624V14.6238V14.6236V14.6233V14.6231V14.6229V14.6226V14.6224V14.6221V14.6219V14.6216V14.6214V14.6212V14.6209V14.6207V14.6204V14.6202V14.6199V14.6197V14.6194V14.6192V14.6189V14.6186V14.6184V14.6181V14.6179V14.6176V14.6174V14.6171V14.6168V14.6166V14.6163V14.616V14.6158V14.6155V14.6152V14.615V14.6147V14.6144V14.6141V14.6139V14.6136V14.6133V14.613V14.6128V14.6125V14.6122V14.6119V14.6116V14.6114V14.6111V14.6108V14.6105V14.6102V14.6099V14.6096V14.6093V14.609V14.6088V14.6085V14.6082V14.6079V14.6076V14.6073V14.607V14.6067V14.6064V14.6061V14.6058V14.6055V14.6052V14.6049V14.6046V14.6043V14.6041V14.6038V14.6035V14.6032V14.6029V14.6026V14.6024V14.6021V14.6018V14.6015V14.6013V14.601V14.6007V14.6004V14.6002V14.5999V14.5996V14.5994V14.5991V14.5988V14.5986V14.5983V14.598V14.5978V14.5975V14.5972V14.597V14.5967V14.5965V14.5962V14.596V14.5957V14.5955V14.5952V14.595V14.5947V14.5945V14.5942V14.594V14.5937V14.5935V14.5932V14.593V14.5927V14.5925V14.5923V14.592V14.5918V14.5915V14.5913V14.5911V14.5908V14.5906V14.5904V14.5901V14.5899V14.5897V14.5894V14.5892V14.589V14.5888V14.5885V14.5883V14.5881V14.5879V14.5876V14.5874V14.5872V14.587V14.5867V14.5865V14.5863V14.5861V14.5859V14.5857V14.5854V14.5852V14.585V14.5848V14.5846V14.5844V14.5842V14.584V14.5837V14.5835V14.5833V14.5831V14.5829V14.5827V14.5825V14.5823V14.5821V14.5819V14.5817V14.5815V14.5813V14.5811V14.5809V14.5807V14.5805V14.5803V14.5801V14.5799V14.5797V14.5795V14.5793V14.5791V14.5789V14.5787V14.5785V14.5784V14.5782V14.578V14.5778V14.5776V14.5774V14.5772V14.577V14.5768V14.5767V14.5765V14.5763V14.5761V14.5759V14.5757V14.5756V14.5754V14.5752V14.575V14.5748V14.5747V14.5745V14.5743V14.5741V14.5739V14.5738V14.5736V14.5734V14.5732V14.5731V14.5729V14.5727V14.5725V14.5724V14.5722V14.572V14.5718V14.5717V14.5715V14.5713V14.5712V14.571V14.5708V14.5707V14.5705V14.5703V14.5702V14.57V14.5698V14.5697V14.5695V14.5693V14.5692V14.569V14.5688V14.5687V14.5685V14.5683V14.5682V14.568V14.5678V14.5677V14.5675V14.5674V14.5672V14.567V14.5669V14.5667V14.5666V14.5664V14.5662V14.5661V14.5659V14.5658V14.5656V14.5655V14.5653V14.5651V14.565V14.5648V14.5647V14.5645V14.5644V14.5642V14.564V14.5639V14.5637V14.5636V14.5634V14.5633V14.5631V14.563V14.5628V14.5627V14.5625V14.5623V14.5622V14.562V14.5619V14.5617V14.5616V14.5614V14.5613V14.5611V14.561V14.5608V14.5607V14.5605V14.5604V14.5602V14.5601V14.5599V14.5598V14.5596V14.5595V14.5593V14.5592V14.559V14.5589V14.5587V14.5586V14.5584V14.5583V14.5581V14.558V14.5578V14.5577V14.5575V14.5574V14.5572V14.5571V14.5569V14.5568V14.5566V14.5565V14.5563V14.5562V14.556V14.5559V14.5557V14.5556V14.5554V14.5553V14.5551V14.555V14.5548V14.5547V14.5545V14.5544V14.5542V14.5541V14.5539V14.5538V14.5536V14.5535V14.5533V14.5532V14.553V14.5529V14.5527V14.5526V14.5524V14.5523V14.5521V14.552V14.5518V14.5517V14.5515V14.5513V14.5512V14.551V14.5509V14.5507V14.5506V14.5504V14.5503V14.5501V14.55V14.5498V14.5497V14.5495V14.5494V14.5492V14.549V14.5489V14.5487V14.5486V14.5484V14.5483V14.5481V14.548V14.5478V14.5476V14.5475V14.5473V14.5472V14.547V14.5468V14.5467V14.5465V14.5464V14.5462V14.5461V14.5459V14.5457V14.5456V14.5454V14.5452V14.5451V14.5449V14.5448V14.5446V14.5444V14.5443V14.5441V14.5439V14.5438V14.5436V14.5434V14.5433V14.5431V14.5429V14.5428V14.5426V14.5424V14.5423V14.5421V14.5419V14.5418V14.5416V14.5414V14.5413V14.5411V14.5409V14.5407V14.5406V14.5404V14.5402V14.54V14.5399V14.5397V14.5395V14.5393V14.5392V14.539V14.5388V14.5386V14.5385V14.5383V14.5381V14.5379V14.5377V14.5376V14.5374V14.5372V14.537V14.5368V14.5366V14.5365V14.5363V14.5361V14.5359V14.5357V14.5355V14.5353V14.5352V14.535V14.5348V14.5346V14.5344V14.5342V14.534V14.5338V14.5336V14.5334V14.5332V14.533V14.5328V14.5326V14.5325V14.5323V14.5321V14.5319V14.5317V14.5315V14.5313V14.5311V14.5308V14.5306V14.5304V14.5302V14.53V14.5298V14.5296V14.5294V14.5292V14.529V14.5288V14.5286V14.5284V14.5281V14.5279V14.5277V14.5275V14.5273V14.5271V14.5269V14.5266V14.5264V14.5262V14.526V14.5258V14.5255V14.5253V14.5251V14.5249V14.5247V14.5244V14.5242V14.524V14.5237V14.5235V14.5233V14.5231V14.5228V14.5226V14.5224V14.5221V14.5219V14.5217V14.5214V14.5212V14.5209V14.5207V14.5205V14.5202V14.52V14.5197V14.5195V14.5192V14.519V14.5188V14.5185V14.5183V14.518V14.5178V14.5175V14.5172V14.517V14.5167V14.5165V14.5162V14.516V14.5157V14.5155V14.5152V14.5149V14.5147V14.5144V14.5141V14.5139V14.5136V14.5133V14.5131V14.5128V14.5125V14.5123V14.512V14.5117V14.5114V14.5112V14.5109V14.5106V14.5103V14.51V14.5098V14.5095V14.5092V14.5089V14.5086V14.5083V14.5081V14.5078V14.5075V14.5072V14.5069V14.5066V14.5063V14.506V14.5057V14.5054V14.5045V14.5036V14.5027V14.5018V14.5009V14.5V14.4991V14.4983V14.4974V14.4965V14.4956V14.4947V14.4938V14.493V14.4921V14.4912V14.4903V14.4894V14.4886V14.4877V14.4868V14.4859V14.4851V14.4842V14.4833V14.4825V14.4816V14.4807V14.4799V14.479V14.4781V14.4773V14.4764V14.4755V14.4747V14.4738V14.473V14.4721V14.4713V14.4704V14.4696V14.4687V14.4679V14.467V14.4662V14.4653V14.4645V14.4636V14.4628V14.4619V14.4611V14.4602V14.4594V14.4586V14.4577V14.4569V14.4561V14.4552V14.4544V14.4536V14.4527V14.4519V14.4511V14.4502V14.4494V14.4486V14.4478V14.4469V14.4461V14.4453V14.4445V14.4437V14.4428V14.442V14.4412V14.4404V14.4396V14.4388V14.4379V14.4371V14.4363V14.4355V14.4347V14.4339V14.4331V14.4323V14.4315V14.4307V14.4299V14.4291V14.4283V14.4275V14.4267V14.4259V14.4251V14.4243V14.4235V14.4227V14.4219V14.4211V14.4203V14.4195V14.4187V14.4179V14.4171V14.4164V14.4156V14.4148V14.414V14.4132V14.4124V14.4117V14.4109V14.4101V14.4093V14.4085V14.4078V14.407V14.4062V14.4054V14.4047V14.4039V14.4031V14.4023V14.4016V14.4008V14.4V14.3993V14.3985V14.3977V14.397V14.3962V14.3954V14.3947V14.3939V14.3932V14.3924V14.3916V14.3909V14.3901V14.3894V14.3886V14.3879V14.3871V14.3864V14.3856V14.3849V14.3841V14.3834V14.3826V14.3819V14.3811V14.3804V14.3796V14.3789V14.3781V14.3774V14.3766V14.3759V14.3752V14.3744V14.3737V14.3729V14.3722V14.3715V14.3707V14.37V14.3693V14.3685V14.3678V14.3671V14.3663V14.3656V14.3649V14.3642V14.3634V14.3627V14.362V14.3612V14.3605V14.3598V14.3591V14.3584V14.3576V14.3569V14.3562V14.3555V14.3548V14.354V14.3533V14.3526V14.3519V14.3512V14.3505V14.3497V14.349V14.3483V14.3476V14.3469V14.3462V14.3455V14.3448V14.3441V14.3434V14.3426V14.3419V14.3412V14.3405V14.3398V14.3391V14.3384V14.3377V14.337V14.3363V14.3356V14.3349V14.3342V14.3335V14.3328V14.3321V14.3314V14.3307V14.33V14.3294V14.3287V14.328V14.3273V14.3266V14.3259V14.3252V14.3245V14.3238V14.3231V14.3225V14.3218V14.3211V14.3204V14.3197V14.319V14.3183V14.3177V14.317V14.3163V14.3156V14.3149V14.3143V14.3136V14.3129V14.3122V14.3115V14.3109V14.3102V14.3095V14.3088V14.3082V14.3075V14.3068V14.3061V14.3055V14.3048V14.3041V14.3035V14.3028V14.3021V14.3015V14.3008V14.3001V14.2995V14.2988V14.2981V14.2975V14.2968V14.2961V14.2955V14.2948V14.2941V14.2935V14.2928V14.2922V14.2915V14.2908V14.2902V14.2895V14.2889V14.2882V14.2875V14.2869V14.2862V14.2856V14.2849V14.2843V14.2836V14.283V14.2823V14.2817V14.281V14.2803V14.2797V14.279V14.2784V14.2777V14.2771V14.2764V14.2758V14.2752V14.2745V14.2739V14.2732V14.2726V14.2719V14.2713V14.2706V14.27V14.2693V14.2687V14.2681V14.2674V14.2668V14.2661V14.2655V14.2649V14.2642V14.2636V14.2629V14.2623V14.2617V14.261V14.2604V14.2597V14.2591V14.2585V14.2578V14.2572V14.2566V14.2559V14.2553V14.2547V14.254V14.2534V14.2528V14.2521V14.2515V14.2509V14.2502V14.2496V14.249V14.2483V14.2477V14.2471V14.2465V14.2458V14.2452V14.2446V14.2439V14.2433V14.2427V14.2421V14.2414V14.2408V14.2402V14.2396V14.2389V14.2383V14.2377V14.2371V14.2364V14.2358V14.2352V14.2346V14.234V14.2333V14.2327V14.2321V14.2315V14.2309V14.2302V14.2296V14.229V14.2284V14.2278V14.2271V14.2265V14.2259V14.2253V14.2247V14.2241V14.2234V14.2228V14.2222V14.2216V14.221V14.2204V14.2197V14.2191V14.2185V14.2179V14.2173V14.2167V14.2161V14.2154V14.2148V14.2142V14.2136V14.213V14.2124V14.2118V14.2112V14.2106V14.2099V14.2093V14.2087V14.2081V14.2075V14.2069V14.2063V14.2057V14.2051V14.2045V14.2038V14.2032V14.2026V14.202V14.2014V14.2008V14.2002V14.1996V14.199V14.1984V14.1978V14.1972V14.1966V14.196V14.1953V14.1947V14.1941V14.1935V14.1929V14.1923V14.1917V14.1911V14.1905V14.1899V14.1893V14.1887V14.1881V14.1875V14.1869V14.1863V14.1857V14.1851V14.1845V14.1839V14.1833V14.1827V14.1821V14.1815V14.1809V14.1803V14.1797V14.179V14.1784V14.1778V14.1772V14.1766V14.176V14.1754V14.1748V14.1742V14.1736V14.173V14.1724V14.1718V14.1712V14.1706V14.17V14.1694V14.1688V14.1682V14.1676V14.167V14.1664V14.1658V14.1652V14.1646V14.164V14.1634V14.1628V14.1622V14.1616V14.161V14.1604V14.1598V14.1592V14.1586V14.158V14.1574V14.1568V14.1562V14.1557V14.1551V14.1545V14.1539V14.1533V14.1527V14.1521V14.1515V14.1509V14.1503V14.1497V14.1491V14.1485V14.1479V14.0457V13.535V12.7688H0.651861L0.651817 12.7637L0.600006 6.68904C0.600456 6.62243 0.625413 6.57219 0.660868 6.53726C0.696942 6.50171 0.752741 6.47364 0.82941 6.47364V6.47367L0.836016 6.4736L10.1111 6.37148C10.1866 6.37207 10.2416 6.39994 10.2772 6.43509C10.313 6.47033 10.3381 6.52117 10.3381 6.58871V10.3172V11.5286L11.3017 10.7945L20.2181 4.00147L20.4545 3.82138V3.80897L23.5372 1.44664L23.5452 1.44051L23.553 1.43412C24.0776 1.00338 24.7805 0.697998 25.5739 0.651052H25.7642Z" stroke="#A0A3BD" stroke-width="1.2"/>
</svg>
