<svg width="29" height="29" viewBox="0 0 29 29" fill="none" xmlns="http://www.w3.org/2000/svg">
<path d="M6.37995 2.32C4.14443 2.32 2.31995 4.14449 2.31995 6.38V22.62C2.31995 24.8555 4.14443 26.68 6.37995 26.68H22.6199C24.8555 26.68 26.6799 24.8555 26.6799 22.62V6.38C26.6799 4.14449 24.8555 2.32 22.6199 2.32H6.37995ZM6.37995 3.48H22.6199C24.2287 3.48 25.5199 4.77127 25.5199 6.38V22.62C25.5199 24.2287 24.2287 25.52 22.6199 25.52H6.37995C4.77122 25.52 3.47995 24.2287 3.47995 22.62V6.38C3.47995 4.77127 4.77122 3.48 6.37995 3.48ZM7.58979 7.54L12.9389 15.14L7.53995 21.46H8.98995L13.5937 16.0701L17.3864 21.46H21.9901L16.1176 13.1157L20.8799 7.54H19.4299L15.4628 12.1857L12.1935 7.54H7.58979ZM9.8101 8.7H11.5875L19.7698 20.3H17.9924L9.8101 8.7Z" fill="#A0A3BD"/>
</svg>
