<svg width="27" height="19" viewBox="0 0 27 19" fill="none" xmlns="http://www.w3.org/2000/svg">
<path d="M25.8257 16.5444C25.834 17.7204 25.3972 18.0339 24.3196 18.0262C17.213 17.9754 10.1059 18.005 2.99897 17.9966C0.997292 17.9943 0.339583 17.3355 0.336866 15.3329C0.330237 10.4469 0.341386 5.56096 0.362912 0.521857C0.988994 0.00824997 1.37788 0.478986 1.78714 0.7718C2.27673 1.12208 2.78054 1.37093 3.53973 1.32701C9.69234 1.29278 15.7027 1.42288 21.8741 1.24239C26.3718 1.12536 26.6083 1.3995 26.2028 6.25942C25.8675 7.36461 25.0594 7.37231 24.2817 7.43224C23.6724 7.47919 23.0686 7.36451 22.4634 7.35671C21.0888 7.339 20.3624 8.02757 20.3486 9.29519C20.3335 10.6894 21.0346 11.337 22.5171 11.3132C23.7002 11.2941 24.9474 10.8731 26.0457 11.9802C26.3713 13.5642 26.6389 15.014 25.8257 16.5444Z" fill="#F57C00"/>
</svg>
